<svg xmlns="http://www.w3.org/2000/svg" xmlns:xlink="http://www.w3.org/1999/xlink" width="500" zoomAndPan="magnify" viewBox="0 0 375 374.999991" height="500" preserveAspectRatio="xMidYMid meet" version="1.0"><defs><g/><clipPath id="da4aeb1580"><rect x="0" width="322" y="0" height="90"/></clipPath></defs><g transform="matrix(1, 0, 0, 1, 26, 135)"><g clip-path="url(#da4aeb1580)"><g fill="#4a4d53" fill-opacity="1"><g transform="translate(1.412406, 66.647006)"><g><path d="M 2.328125 -22.015625 C 2.328125 -26.304688 3.328125 -30.15625 5.328125 -33.5625 C 7.328125 -36.96875 10.039062 -39.628906 13.46875 -41.546875 C 16.894531 -43.460938 20.648438 -44.421875 24.734375 -44.421875 C 29.398438 -44.421875 33.550781 -43.273438 37.1875 -40.984375 C 40.832031 -38.691406 43.472656 -35.441406 45.109375 -31.234375 L 36.46875 -31.234375 C 35.332031 -33.546875 33.753906 -35.269531 31.734375 -36.40625 C 29.710938 -37.539062 27.378906 -38.109375 24.734375 -38.109375 C 21.828125 -38.109375 19.238281 -37.457031 16.96875 -36.15625 C 14.695312 -34.851562 12.921875 -32.976562 11.640625 -30.53125 C 10.359375 -28.09375 9.71875 -25.253906 9.71875 -22.015625 C 9.71875 -18.773438 10.359375 -15.9375 11.640625 -13.5 C 12.921875 -11.0625 14.695312 -9.179688 16.96875 -7.859375 C 19.238281 -6.535156 21.828125 -5.875 24.734375 -5.875 C 27.378906 -5.875 29.710938 -6.441406 31.734375 -7.578125 C 33.753906 -8.710938 35.332031 -10.4375 36.46875 -12.75 L 45.109375 -12.75 C 43.472656 -8.539062 40.832031 -5.300781 37.1875 -3.03125 C 33.550781 -0.757812 29.398438 0.375 24.734375 0.375 C 20.609375 0.375 16.84375 -0.578125 13.4375 -2.484375 C 10.03125 -4.398438 7.328125 -7.0625 5.328125 -10.46875 C 3.328125 -13.875 2.328125 -17.722656 2.328125 -22.015625 Z M 2.328125 -22.015625 "/></g></g></g><g fill="#4a4d53" fill-opacity="1"><g transform="translate(50.1829, 66.647006)"><g><path d="M 50.921875 -43.84375 L 50.921875 0 L 43.71875 0 L 43.71875 -30.03125 L 30.34375 0 L 25.359375 0 L 11.921875 -30.03125 L 11.921875 0 L 4.734375 0 L 4.734375 -43.84375 L 12.5 -43.84375 L 27.890625 -9.46875 L 43.21875 -43.84375 Z M 50.921875 -43.84375 "/></g></g></g><g fill="#c70011" fill-opacity="1"><g transform="translate(105.839595, 66.647006)"><g><path d="M 33.6875 -44.484375 L 33.6875 -34.640625 L 15.90625 -34.640625 L 15.90625 -26.8125 L 29.015625 -26.8125 L 29.015625 -17.40625 L 15.90625 -17.40625 L 15.90625 0 L 3.53125 0 L 3.53125 -44.484375 Z M 33.6875 -44.484375 "/></g></g></g><g fill="#c70011" fill-opacity="1"><g transform="translate(141.234468, 66.647006)"><g><path d="M 9.78125 -38.671875 C 7.59375 -38.671875 5.835938 -39.269531 4.515625 -40.46875 C 3.191406 -41.664062 2.53125 -43.171875 2.53125 -44.984375 C 2.53125 -46.835938 3.191406 -48.375 4.515625 -49.59375 C 5.835938 -50.8125 7.59375 -51.421875 9.78125 -51.421875 C 11.925781 -51.421875 13.660156 -50.8125 14.984375 -49.59375 C 16.304688 -48.375 16.96875 -46.835938 16.96875 -44.984375 C 16.96875 -43.171875 16.304688 -41.664062 14.984375 -40.46875 C 13.660156 -39.269531 11.925781 -38.671875 9.78125 -38.671875 Z M 15.90625 -35.390625 L 15.90625 0 L 3.53125 0 L 3.53125 -35.390625 Z M 15.90625 -35.390625 "/></g></g></g><g fill="#c70011" fill-opacity="1"><g transform="translate(160.666949, 66.647006)"><g><path d="M 15.90625 -46.6875 L 15.90625 0 L 3.53125 0 L 3.53125 -46.6875 Z M 15.90625 -46.6875 "/></g></g></g><g fill="#c70011" fill-opacity="1"><g transform="translate(180.09943, 66.647006)"><g><path d="M 9.78125 -38.671875 C 7.59375 -38.671875 5.835938 -39.269531 4.515625 -40.46875 C 3.191406 -41.664062 2.53125 -43.171875 2.53125 -44.984375 C 2.53125 -46.835938 3.191406 -48.375 4.515625 -49.59375 C 5.835938 -50.8125 7.59375 -51.421875 9.78125 -51.421875 C 11.925781 -51.421875 13.660156 -50.8125 14.984375 -49.59375 C 16.304688 -48.375 16.96875 -46.835938 16.96875 -44.984375 C 16.96875 -43.171875 16.304688 -41.664062 14.984375 -40.46875 C 13.660156 -39.269531 11.925781 -38.671875 9.78125 -38.671875 Z M 15.90625 -35.390625 L 15.90625 0 L 3.53125 0 L 3.53125 -35.390625 Z M 15.90625 -35.390625 "/></g></g></g><g fill="#c70011" fill-opacity="1"><g transform="translate(199.531911, 66.647006)"><g><path d="M 26.6875 -35.71875 C 30.769531 -35.71875 34.007812 -34.359375 36.40625 -31.640625 C 38.800781 -28.929688 40 -25.257812 40 -20.625 L 40 0 L 27.640625 0 L 27.640625 -18.984375 C 27.640625 -21.003906 27.113281 -22.59375 26.0625 -23.75 C 25.007812 -24.90625 23.597656 -25.484375 21.828125 -25.484375 C 19.972656 -25.484375 18.519531 -24.90625 17.46875 -23.75 C 16.425781 -22.59375 15.90625 -21.003906 15.90625 -18.984375 L 15.90625 0 L 3.53125 0 L 3.53125 -35.390625 L 15.90625 -35.390625 L 15.90625 -30.34375 C 17 -31.945312 18.46875 -33.242188 20.3125 -34.234375 C 22.164062 -35.222656 24.289062 -35.71875 26.6875 -35.71875 Z M 26.6875 -35.71875 "/></g></g></g><g fill="#c70011" fill-opacity="1"><g transform="translate(242.813356, 66.647006)"><g><path d="M 16.59375 -35.84375 C 18.988281 -35.84375 21.078125 -35.359375 22.859375 -34.390625 C 24.648438 -33.421875 26.03125 -32.113281 27 -30.46875 L 27 -35.390625 L 39.375 -35.390625 L 39.375 -0.375 C 39.375 2.945312 38.738281 5.941406 37.46875 8.609375 C 36.207031 11.285156 34.242188 13.421875 31.578125 15.015625 C 28.910156 16.609375 25.535156 17.40625 21.453125 17.40625 C 15.984375 17.40625 11.609375 16.125 8.328125 13.5625 C 5.046875 11 3.175781 7.507812 2.71875 3.09375 L 14.890625 3.09375 C 15.140625 4.226562 15.769531 5.109375 16.78125 5.734375 C 17.789062 6.367188 19.09375 6.6875 20.6875 6.6875 C 24.894531 6.6875 27 4.332031 27 -0.375 L 27 -4.921875 C 26.03125 -3.273438 24.648438 -1.96875 22.859375 -1 C 21.078125 -0.0390625 18.988281 0.4375 16.59375 0.4375 C 13.769531 0.4375 11.210938 -0.296875 8.921875 -1.765625 C 6.628906 -3.234375 4.820312 -5.34375 3.5 -8.09375 C 2.175781 -10.851562 1.515625 -14.066406 1.515625 -17.734375 C 1.515625 -21.390625 2.175781 -24.582031 3.5 -27.3125 C 4.820312 -30.050781 6.628906 -32.15625 8.921875 -33.625 C 11.210938 -35.101562 13.769531 -35.84375 16.59375 -35.84375 Z M 27 -17.734375 C 27 -20.003906 26.378906 -21.789062 25.140625 -23.09375 C 23.898438 -24.394531 22.375 -25.046875 20.5625 -25.046875 C 18.71875 -25.046875 17.1875 -24.40625 15.96875 -23.125 C 14.75 -21.84375 14.140625 -20.046875 14.140625 -17.734375 C 14.140625 -15.460938 14.75 -13.660156 15.96875 -12.328125 C 17.1875 -11.003906 18.71875 -10.34375 20.5625 -10.34375 C 22.375 -10.34375 23.898438 -10.992188 25.140625 -12.296875 C 26.378906 -13.609375 27 -15.421875 27 -17.734375 Z M 27 -17.734375 "/></g></g></g><g fill="#c70011" fill-opacity="1"><g transform="translate(285.716238, 66.647006)"><g><path d="M 18.609375 0.4375 C 15.410156 0.4375 12.5625 -0.0976562 10.0625 -1.171875 C 7.5625 -2.242188 5.582031 -3.710938 4.125 -5.578125 C 2.675781 -7.453125 1.867188 -9.566406 1.703125 -11.921875 L 13.6875 -11.921875 C 13.851562 -10.785156 14.378906 -9.898438 15.265625 -9.265625 C 16.148438 -8.640625 17.242188 -8.328125 18.546875 -8.328125 C 19.554688 -8.328125 20.351562 -8.535156 20.9375 -8.953125 C 21.53125 -9.378906 21.828125 -9.925781 21.828125 -10.59375 C 21.828125 -11.476562 21.34375 -12.128906 20.375 -12.546875 C 19.40625 -12.972656 17.804688 -13.4375 15.578125 -13.9375 C 13.054688 -14.445312 10.953125 -15.015625 9.265625 -15.640625 C 7.585938 -16.273438 6.128906 -17.304688 4.890625 -18.734375 C 3.648438 -20.171875 3.03125 -22.109375 3.03125 -24.546875 C 3.03125 -26.648438 3.597656 -28.550781 4.734375 -30.25 C 5.867188 -31.957031 7.539062 -33.316406 9.75 -34.328125 C 11.957031 -35.335938 14.617188 -35.84375 17.734375 -35.84375 C 22.359375 -35.84375 25.992188 -34.703125 28.640625 -32.421875 C 31.296875 -30.148438 32.832031 -27.164062 33.25 -23.46875 L 22.078125 -23.46875 C 21.867188 -24.601562 21.375 -25.472656 20.59375 -26.078125 C 19.820312 -26.691406 18.785156 -27 17.484375 -27 C 16.472656 -27 15.703125 -26.8125 15.171875 -26.4375 C 14.648438 -26.0625 14.390625 -25.535156 14.390625 -24.859375 C 14.390625 -24.015625 14.867188 -23.367188 15.828125 -22.921875 C 16.796875 -22.484375 18.351562 -22.035156 20.5 -21.578125 C 23.070312 -21.035156 25.207031 -20.425781 26.90625 -19.75 C 28.613281 -19.070312 30.109375 -17.988281 31.390625 -16.5 C 32.671875 -15.007812 33.3125 -12.976562 33.3125 -10.40625 C 33.3125 -8.34375 32.710938 -6.488281 31.515625 -4.84375 C 30.316406 -3.207031 28.613281 -1.914062 26.40625 -0.96875 C 24.195312 -0.03125 21.597656 0.4375 18.609375 0.4375 Z M 18.609375 0.4375 "/></g></g></g></g></g></svg>